<svg width="24" height="24" viewBox="0 0 24 24" fill="none" xmlns="http://www.w3.org/2000/svg">
<path d="M4.51799 6.31804C4.10012 6.7359 3.76865 7.23198 3.5425 7.77795C3.31635 8.32392 3.19995 8.90909 3.19995 9.50004C3.19995 10.091 3.31635 10.6762 3.5425 11.2221C3.76865 11.7681 4.10012 12.2642 4.51799 12.682L12.2 20.364L19.882 12.682C20.7259 11.8381 21.2 10.6935 21.2 9.50004C21.2 8.30656 20.7259 7.16196 19.882 6.31804C19.0381 5.47412 17.8935 5.00001 16.7 5.00001C15.5065 5.00001 14.3619 5.47412 13.518 6.31804L12.2 7.63604L10.882 6.31804C10.4641 5.90017 9.96805 5.5687 9.42208 5.34255C8.87611 5.1164 8.29094 5 7.69999 5C7.10904 5 6.52387 5.1164 5.9779 5.34255C5.43193 5.5687 4.93585 5.90017 4.51799 6.31804Z" fill="black" stroke="black" stroke-width="2" stroke-linecap="round" stroke-linejoin="round"/>
</svg>
