<svg width="24" height="24" viewBox="0 0 24 24" fill="none" xmlns="http://www.w3.org/2000/svg">
<path d="M2.29289 11.2929C1.90237 11.6834 1.90237 12.3166 2.29289 12.7071C2.68342 13.0976 3.31658 13.0976 3.70711 12.7071L2.29289 11.2929ZM12 3L12.7071 2.29289C12.3166 1.90237 11.6834 1.90237 11.2929 2.29289L12 3ZM20.2929 12.7071C20.6834 13.0976 21.3166 13.0976 21.7071 12.7071C22.0976 12.3166 22.0976 11.6834 21.7071 11.2929L20.2929 12.7071ZM11.2929 3.70711L18.2929 10.7071L19.7071 9.29289L12.7071 2.29289L11.2929 3.70711ZM18.2929 10.7071L20.2929 12.7071L21.7071 11.2929L19.7071 9.29289L18.2929 10.7071ZM18 10V20H20V10H18ZM18 20H6V22H18V20ZM3.70711 12.7071L5.70711 10.7071L4.29289 9.29289L2.29289 11.2929L3.70711 12.7071ZM5.70711 10.7071L12.7071 3.70711L11.2929 2.29289L4.29289 9.29289L5.70711 10.7071ZM6 20V10H4V20H6ZM6 20H6H4C4 21.1046 4.89543 22 6 22V20ZM18 20V22C19.1046 22 20 21.1046 20 20H18Z" fill="black"/>
<path d="M6 10.4L12 4L18 10.4V20H15V16C15 15.1716 14.3284 14.5 13.5 14.5H10.5C9.67157 14.5 9 15.1716 9 16V20H6V10.4Z" fill="black"/>
<rect x="11" y="16" width="2" height="4" fill="black"/>
</svg>
