<svg width="64" height="64" viewBox="0 0 64 64" fill="none" xmlns="http://www.w3.org/2000/svg">
<path fill-rule="evenodd" clip-rule="evenodd" d="M55.851 0.165863H5.41117C2.51233 0.165863 0.161047 2.51323 0.161047 5.40724V55.7631L14.2365 41.711C14.5586 41.3895 14.9451 41.1001 15.3639 40.8428C16.2657 40.264 17.3286 39.9103 18.4882 39.9103H45.8017C48.9582 39.9103 51.5672 42.5149 51.5672 45.6983C51.5672 48.8496 48.9582 51.4542 45.8017 51.4542H20.6784L8.2456 63.8341H58.5888C61.4877 63.8341 63.839 61.4868 63.839 58.6249V8.33341L49.8279 22.3211C49.0871 23.0607 48.2174 23.543 47.2833 23.8003C46.7358 23.9611 46.156 24.0575 45.5763 24.0575H18.3271C15.1706 24.0575 12.5939 21.4851 12.5939 18.366C12.5939 15.2147 15.1706 12.6423 18.3271 12.6423H43.3538L55.851 0.165863Z" fill="#4962E4" stroke="#4962E4" stroke-width="1.59983"/>
</svg>
