<svg width="16" height="16" viewBox="0 0 16 16" fill="none" xmlns="http://www.w3.org/2000/svg">
<path d="M11.3333 13.3333H14.6666V12C14.6666 11.5844 14.5371 11.179 14.2961 10.8404C14.0551 10.5018 13.7145 10.2467 13.3218 10.1105C12.9291 9.97435 12.5037 9.96392 12.1048 10.0807C11.7059 10.1974 11.3533 10.4356 11.096 10.762M11.3333 13.3333H4.66665M11.3333 13.3333V12C11.3333 11.5627 11.2493 11.1447 11.096 10.762M11.096 10.762C10.8484 10.1433 10.4211 9.61298 9.86931 9.23942C9.31747 8.86586 8.66637 8.6662 7.99998 8.6662C7.33359 8.6662 6.68249 8.86586 6.13065 9.23942C5.57881 9.61298 5.15155 10.1433 4.90398 10.762M4.66665 13.3333H1.33331V12C1.33334 11.5844 1.46287 11.179 1.70389 10.8404C1.9449 10.5018 2.28544 10.2467 2.67815 10.1105C3.07086 9.97435 3.49623 9.96392 3.89514 10.0807C4.29405 10.1974 4.64667 10.4356 4.90398 10.762M4.66665 13.3333V12C4.66665 11.5627 4.75065 11.1447 4.90398 10.762M9.99998 4.66667C9.99998 5.1971 9.78927 5.70581 9.41419 6.08088C9.03912 6.45595 8.53041 6.66667 7.99998 6.66667C7.46955 6.66667 6.96084 6.45595 6.58577 6.08088C6.21069 5.70581 5.99998 5.1971 5.99998 4.66667C5.99998 4.13624 6.21069 3.62753 6.58577 3.25245C6.96084 2.87738 7.46955 2.66667 7.99998 2.66667C8.53041 2.66667 9.03912 2.87738 9.41419 3.25245C9.78927 3.62753 9.99998 4.13624 9.99998 4.66667ZM14 6.66667C14 7.02029 13.8595 7.35943 13.6095 7.60948C13.3594 7.85953 13.0203 8 12.6666 8C12.313 8 11.9739 7.85953 11.7238 7.60948C11.4738 7.35943 11.3333 7.02029 11.3333 6.66667C11.3333 6.31305 11.4738 5.97391 11.7238 5.72386C11.9739 5.47381 12.313 5.33333 12.6666 5.33333C13.0203 5.33333 13.3594 5.47381 13.6095 5.72386C13.8595 5.97391 14 6.31305 14 6.66667ZM4.66665 6.66667C4.66665 7.02029 4.52617 7.35943 4.27612 7.60948C4.02607 7.85953 3.68693 8 3.33331 8C2.97969 8 2.64055 7.85953 2.3905 7.60948C2.14046 7.35943 1.99998 7.02029 1.99998 6.66667C1.99998 6.31305 2.14046 5.97391 2.3905 5.72386C2.64055 5.47381 2.97969 5.33333 3.33331 5.33333C3.68693 5.33333 4.02607 5.47381 4.27612 5.72386C4.52617 5.97391 4.66665 6.31305 4.66665 6.66667Z" stroke="#9383FB" stroke-linecap="round" stroke-linejoin="round"/>
</svg>
